<?xml version="1.0" encoding="utf-8"?>
<!-- Generator: Adobe Illustrator 21.1.0, SVG Export Plug-In . SVG Version: 6.00 Build 0)  -->
<svg version="1.1" id="Layer_1" xmlns="http://www.w3.org/2000/svg" xmlns:xlink="http://www.w3.org/1999/xlink" x="0px" y="0px"
	 viewBox="0 0 1000 1000" style="enable-background:new 0 0 1000 1000;" xml:space="preserve">
<style type="text/css">
	.st0{fill:none;stroke:#010101;stroke-miterlimit:10;}
</style>
<path class="st0" d="M426.1,714.3c-4.4-25.7-15.3-79.5,62.9-147.2s104.1,6.1,68.1,75.9s-109.4,70.6-148.3,37.4
	c-39-33.2-41.9-71.9-31.3-150.5c10.6-78.6,73.7-158.7,53.3,0s-98.5,252.7-111.1,257.9c-12.5,5.2-41.9,14.9-48.8-2
	c-6.9-16.9,6.3-27.6,17.6-25.2c11.3,2.4,19.8-6.5,23.9-36.5c4.1-29.9,32.4-130.8-29.7-215.9s-33.4-194.5-12.7-227.9
	s52.8-20.5,56.7-9.7s-33.5,34.6-56.8,5.5s-14.5-54.7-12.3-82.6c2.2-27.9-1.9-52-3-66c-1-13.9,7.4-36.7,11-37.1
	c3.6-0.4,28.4,11.4,36.4,24.8s8.1,25.7,21.4,32c13.3,6.3,41.2,3.3,47.9,1.7c6.8-1.6,10.3-33.7,37.6-45.8s22.2-5.7,24.4,5.6
	c2.2,11.2-6.3,56.1-8,74.7c-1.7,18.6,0,54.6-2.7,67.7c-2.6,13.1-6.2,39.4-36.2,36c-30-3.4-26.3-27.8,1.5-30.3
	c27.8-2.4,26.7,30.4,42.7,45.7c16,15.2,35.2,29.8,70.8,46.9c35.6,17,104.4,67.1,140.5,157.1s67.5,228.2,1.6,224.2
	c-65.9-3.9-23.2-33.9-3.8-32.7s61.3,9.4,102.3,9s98.9,28.6,103.5,67.4c4.6,38.8-16.5,62.8-51.9,71.6
	c-35.4,8.8-110.4,27.3-148.2,33.3s-60.7-23.1-6.4-37.8c54.3-14.8,167.7-32.6,156.8-63.4s-96-22.1-147.6-8.1s-62.7,20.4-93,23.3
	c-30.3,2.9-127.4,4.9-164.4,5.5c-37,0.6-34.6-41.8,8.3-46.1s156.7-18.3,160.6-7.2c3.9,11.1-33,26.4-67.8,26.6S430.4,740,426.1,714.3
	z"/>
<g>
</g>
<g>
</g>
<g>
</g>
<g>
</g>
<g>
</g>
<g>
</g>
</svg>
