<?xml version="1.0" encoding="utf-8"?>
<!-- Generator: Adobe Illustrator 21.1.0, SVG Export Plug-In . SVG Version: 6.00 Build 0)  -->
<svg version="1.1" id="Layer_1" xmlns="http://www.w3.org/2000/svg" xmlns:xlink="http://www.w3.org/1999/xlink" x="0px" y="0px"
	 viewBox="0 0 400 400" style="enable-background:new 0 0 400 400;" xml:space="preserve">
<style type="text/css">
	.st0{fill:none;stroke:#010101;stroke-miterlimit:10;}
</style>
<path class="st0" d="M165.5,301.8c-1.7-10.1-6-31.3,24.8-58s41,2.4,26.8,29.9s-43.1,27.8-58.5,14.7c-15.4-13.1-16.5-28.3-12.3-59.3
	s29.1-62.6,21,0s-38.8,99.6-43.8,101.7c-4.9,2-16.5,5.9-19.2-0.8s2.5-10.9,6.9-9.9c4.5,0.9,7.8-2.6,9.4-14.4
	c1.6-11.8,12.8-51.6-11.7-85.1s-13.2-76.7-5-89.8c8.2-13.2,20.8-8.1,22.3-3.8s-13.2,13.6-22.4,2.2s-5.7-21.6-4.8-32.6
	c0.9-11-0.7-20.5-1.2-26c-0.4-5.5,2.9-14.5,4.3-14.6c1.4-0.2,11.2,4.5,14.3,9.8s3.2,10.1,8.4,12.6c5.2,2.5,16.2,1.3,18.9,0.7
	c2.7-0.6,4.1-13.3,14.8-18.1c10.8-4.8,8.8-2.2,9.6,2.2c0.9,4.4-2.5,22.1-3.2,29.4s0,21.5-1.1,26.7c-1,5.2-2.4,15.5-14.3,14.2
	c-11.8-1.3-10.4-11,0.6-11.9c11-0.9,10.5,12,16.8,18c6.3,6,13.9,11.7,27.9,18.5c14,6.7,41.2,26.4,55.4,61.9s26.6,89.9,0.6,88.4
	c-26-1.5-9.1-13.4-1.5-12.9c7.6,0.5,24.2,3.7,40.3,3.5c16.2-0.2,39,11.3,40.8,26.6c1.8,15.3-6.5,24.8-20.5,28.2
	c-14,3.5-43.5,10.8-58.4,13.1c-14.9,2.4-23.9-9.1-2.5-14.9c21.4-5.8,66.1-12.8,61.8-25c-4.3-12.1-37.8-8.7-58.2-3.2
	s-24.7,8-36.7,9.2c-11.9,1.1-50.2,1.9-64.8,2.2c-14.6,0.2-13.6-16.5,3.3-18.2s61.8-7.2,63.3-2.8s-13,10.4-26.7,10.5
	C177.8,324.7,167.2,312,165.5,301.8z"/>
<g>
</g>
<g>
</g>
<g>
</g>
<g>
</g>
<g>
</g>
<g>
</g>
</svg>
