<?xml version="1.0" encoding="utf-8"?>
<svg viewBox="0 0 500 500" xmlns="http://www.w3.org/2000/svg">
  <path style="fill: none; stroke: rgb(0, 0, 0);" d="M 105.631 214.948 C 107.37 262.068 108.594 295.975 115.458 293.572 C 122.322 291.169 108.197 257.08 131.429 257.331 C 154.661 257.582 132.043 293.572 149.242 292.344 C 166.441 291.116 203.741 275.476 199.611 263.473 C 195.481 251.47 175.359 246.359 173.199 264.703 C 171.039 283.047 181.183 290.501 197.767 290.501 C 214.351 290.501 247.522 288.717 248.136 216.176 C 248.75 143.635 230.324 144.922 229.709 216.176 C 229.094 287.43 245.064 291.115 258.578 291.115 C 272.092 291.115 299.12 289.886 299.119 217.405 C 299.118 144.924 281.306 145.537 279.464 216.79 C 277.622 288.043 291.134 291.115 308.947 291.115 C 326.76 291.115 327.768 256.39 354.401 256.103 C 381.034 255.816 376.268 287.409 354.402 288.658 C 332.536 289.907 328.271 259.692 353.787 256.102 C 379.303 252.512 460.053 296.643 390.642 315.071 C 321.231 333.499 153.542 339.641 103.174 328.584 C 52.806 317.527 122.274 273.985 122.83 215.563 C 123.444 150.996 103.254 150.532 105.631 214.948 Z"/>
</svg>