<?xml version="1.0" encoding="utf-8"?>
<!-- Generator: Adobe Illustrator 21.1.0, SVG Export Plug-In . SVG Version: 6.00 Build 0)  -->
<svg version="1.1" id="Layer_1" xmlns="http://www.w3.org/2000/svg" xmlns:xlink="http://www.w3.org/1999/xlink" x="0px" y="0px"
	 viewBox="0 0 400 400" style="enable-background:new 0 0 400 400;" xml:space="preserve">
<style type="text/css">
	.st0{fill:none;stroke:#000000;stroke-miterlimit:10;}
</style>
<path class="st0" d="M220.5,247.8c8.5,1.2,17,2.4,23.3,7.4c12.7,10,25.7,6.9,38.9,2.8c6.1-1.9,12.2-3.5,18.6-3.7
	c4.5-0.2,9.1-0.9,13.9-1.4c-4.8-10.3-16.1-14.2-26.2-9.7c-5.6,2.5-10.9,5.2-17.4,5.1c-16.6-0.2-30.7-7.4-45.3-14.4
	c4-6.9,9.5-10.6,15.7-13.1c7.4-3,15.1-5.5,22.6-8.3c22-8.1,26.3-14.8,24.4-37.3c4.5-1.2,3.8,6.1,8.5,5c11.1-2.6,20.5,2.6,30,7.2
	c8.5,4.1,17.3,7.7,27,7.5c13.4-0.2,22.8-11.8,20.5-24.8c-1.5-8.3-12.3-15.6-20.9-13.8c2.9,1.6,5.6,3,8.2,4.5
	c6.8,4.1,9.5,10.2,7.1,17.7c-2.4,7.3-8.3,9.9-15.7,9.9c-6.1,0-11.2-2.6-16.1-5.9c-22.2-15.1-44-30.8-68.2-42.7
	c-30.3-14.8-59.8-14.5-87.7,6.4c-8.6,6.5-17.8,12.2-28.1,16c-12,4.4-23.1,3.1-34-3.5c6-6.5,10.9-13.4,20.9-15.7
	c-2.3-1.3-3-2.1-3.7-2.1c-18.9-0.5-37.9,0.6-56.8-2c-3.3-0.4-7.6,0.6-10.3,2.6c-13,9.9-27.8,14.4-43.8,15.9c-0.4,0-0.7,0.8-1.1,1.2
	c0.7,10.2,5,15.5,14.6,16.8c6.6,0.9,13.3,1.1,19.9,1.2c18.6,0.3,34.8,5,46.8,20.9c5.6,7.4,13.5,13.1,20.3,19.7
	c19,18.6,42.9,21.7,67.8,21.5c2.7,0,5.6-0.5,5.9-3.4c0.8-6.6,0.2-13.4,1.5-19.9c1.7-8.6-5.6-10.8-9.9-15.1c5.1-2.4,8.4,2.1,13.2,3.2
	c4.2-8.1,8-16.4,17.9-21c-3.8,5.5-7.1,9.7-10,14.3c-3,4.7-4.8,10-6.2,15.4c-1.9,7.6-2,15.4-2.3,23.1c-0.6,19.8-11.6,31.6-30.1,36
	c-6.8,1.6-13.7,1.9-20.6,2.2c-4.8,0.2-9.8,0.4-13.1,5.4c11.1,6.6,22,6.8,33.1,2.1c11.8-5,23.8-9.3,36.4-11.2c4-0.6,5.8-2.3,6.2-6.3
	C217.3,258.5,217.8,253.2,220.5,247.8z"/>
    <path class="st0" d="M220.5,247.8c8.5,1.2,17,2.4,23.3,7.4c12.7,10,25.7,6.9,38.9,2.8c6.1-1.9,12.2-3.5,18.6-3.7
	c4.5-0.2,9.1-0.9,13.9-1.4c-4.8-10.3-16.1-14.2-26.2-9.7c-5.6,2.5-10.9,5.2-17.4,5.1c-16.6-0.2-30.7-7.4-45.3-14.4
	c4-6.9,9.5-10.6,15.7-13.1c7.4-3,15.1-5.5,22.6-8.3c22-8.1,26.3-14.8,24.4-37.3c4.5-1.2,3.8,6.1,8.5,5c11.1-2.6,20.5,2.6,30,7.2
	c8.5,4.1,17.3,7.7,27,7.5c13.4-0.2,22.8-11.8,20.5-24.8c-1.5-8.3-12.3-15.6-20.9-13.8c2.9,1.6,5.6,3,8.2,4.5
	c6.8,4.1,9.5,10.2,7.1,17.7c-2.4,7.3-8.3,9.9-15.7,9.9c-6.1,0-11.2-2.6-16.1-5.9c-22.2-15.1-44-30.8-68.2-42.7
	c-30.3-14.8-59.8-14.5-87.7,6.4c-8.6,6.5-17.8,12.2-28.1,16c-12,4.4-23.1,3.1-34-3.5c6-6.5,10.9-13.4,20.9-15.7
	c-2.3-1.3-3-2.1-3.7-2.1c-18.9-0.5-37.9,0.6-56.8-2c-3.3-0.4-7.6,0.6-10.3,2.6c-13,9.9-27.8,14.4-43.8,15.9c-0.4,0-0.7,0.8-1.1,1.2
	c0.7,10.2,5,15.5,14.6,16.8c6.6,0.9,13.3,1.1,19.9,1.2c18.6,0.3,34.8,5,46.8,20.9c5.6,7.4,13.5,13.1,20.3,19.7
	c19,18.6,42.9,21.7,67.8,21.5c2.7,0,5.6-0.5,5.9-3.4c0.8-6.6,0.2-13.4,1.5-19.9c1.7-8.6-5.6-10.8-9.9-15.1c5.1-2.4,8.4,2.1,13.2,3.2
	c4.2-8.1,8-16.4,17.9-21c-3.8,5.5-7.1,9.7-10,14.3c-3,4.7-4.8,10-6.2,15.4c-1.9,7.6-2,15.4-2.3,23.1c-0.6,19.8-11.6,31.6-30.1,36
	c-6.8,1.6-13.7,1.9-20.6,2.2c-4.8,0.2-9.8,0.4-13.1,5.4c11.1,6.6,22,6.8,33.1,2.1c11.8-5,23.8-9.3,36.4-11.2c4-0.6,5.8-2.3,6.2-6.3
	C217.3,258.5,217.8,253.2,220.5,247.8z"/>
</svg>