<svg id="Layer_1" data-name="Layer 1" xmlns="http://www.w3.org/2000/svg" viewBox="0 0 389.29 84.14"><defs><style>.cls-1{fill:none;stroke:#000;stroke-miterlimit:10;}</style></defs><title>welcome</title><path class="cls-1" d="M31.35,154.62C35.35,183.22,38,194,42.6,194c8.39,0,10.17-33.83,18.17-33.17S67.56,195,75,194.5s23.9-56.11,17.07-55.74c8,.14-14.41,57.57,16.8,44.38,17.1-7.23,23-23.67,13.66-23.33s-19.67,25.33-9,32.33,29.39-4.86,34.17-15.59c5.72-12.83,13.33-39.08,8-37.75s-17.3,59,3.06,55.7c16.09-2.58,24.5-34.13,33.74-33.44,5.8.43,3.17,10.11,3.17,10.11s2.91-8.77-3.17-10.11S170,183.5,182,192.75s42.22-25,46.08-27.11c6-3.33,14.53-1.33,13.28,10.67s-18.17,23-24.92,15.5,10.85-31,18.49-27.52c8.5,3.88,20,9.93,27,5.35s-3.83,24.17.33,24.58,13-26.25,20.17-26,3.08,22.08,5.67,22.25,14.25-23.58,18.42-23.33-2.52,26.95,5,27.36c4.5.25,13.59-7.36,17-9.52,14.61-9.3,19.41-23.63,12.41-23.87-9.67-.33-18.13,27.35-4.64,32.39,9.89,3.7,20.44-6.06,31.61-19.2,6.79-8,40.25-.75,20,12-41.54,26.15-371.3,53.07-380.27,20.88C-.91,176.69,27.35,126,31.35,154.62Z" transform="translate(-5.5 -138.26)"/></svg>